<?xml version="1.0" encoding="UTF-8" standalone="no"?>
<svg width="522px" height="185px" viewBox="0 0 522 185" version="1.1" xmlns="http://www.w3.org/2000/svg" xmlns:xlink="http://www.w3.org/1999/xlink">
    <!-- Generator: Sketch 3.6 (26304) - http://www.bohemiancoding.com/sketch -->
    <title>Slice 1</title>
    <desc>Created with Sketch.</desc>
    <defs></defs>
    <g id="Page-1" stroke="none" stroke-width="1" fill="none" fill-rule="evenodd">
        <g id="Group-2">
            <g id="Group" transform="translate(380.000000, 0.000000)">
                <path d="M2.7,69.1 C27.2,69.1 50.3,75.4 70.4,86.3 L142,0 L0,0 L0,171.1 L0,171.1 L0,69.1 L2.7,69.1 L2.7,69.1 Z" id="Shape" fill="#E8478B"></path>
                <path d="M70.4,86.3 L0,171.1 L0,184.6 L141.9,184.6 C133.9,142.1 107.1,106.3 70.4,86.3 L70.4,86.3 Z" id="Shape" fill="#40BEB0"></path>
                <path d="M70.4,86.3 L0,171.1 L0,184.6 L25.3,184.6 L93.6,102.2 C93.6,102.2 89.1,98.4 82.6,93.9 C77.7,90.3 70.4,86.3 70.4,86.3 L70.4,86.3 Z" id="Shape" fill="#37A595"></path>
                <path d="M2.7,69.1 C1.8,69.1 0.9,69.2 0,69.2 L0,171.1 L70.4,86.4 C50.3,75.3 27.2,69.1 2.7,69.1 L2.7,69.1 Z" id="Shape" fill="#473f41"></path>
            </g>
        </g>
    </g>
</svg>