<?xml version="1.0" encoding="UTF-8" standalone="no"?>
<svg width="522px" height="185px" viewBox="0 0 522 185" version="1.1" xmlns="http://www.w3.org/2000/svg" xmlns:xlink="http://www.w3.org/1999/xlink">
    <!-- Generator: Sketch 3.6 (26304) - http://www.bohemiancoding.com/sketch -->
    <title>Slice 1</title>
    <desc>Created with Sketch.</desc>
    <defs></defs>
    <g id="Page-1" stroke="none" stroke-width="1" fill="none" fill-rule="evenodd">
        <g id="Group-2">
            <g id="Group">
                <path d="M10.2141785,52 L133,52 C146.546091,52 158.693793,45.847089 166.792688,36.1916865 C149.883268,14.1847835 123.298151,0 93.4,0 C56.8388008,0 25.2318532,21.2116727 10.2141817,51.9999935 Z" id="Combined-Shape" fill="#EFBF1B"></path>
                <path d="M10.1654761,132.9 L133.5,132.9 C146.952464,132.9 158.995156,138.937503 167.066167,148.4506 C150.170706,170.661384 123.459835,185 93.4,185 C56.7992306,185 25.1634426,163.742388 10.1654792,132.900006 Z" id="Combined-Shape" fill="#40BEB0"></path>
                <path d="M4.60412555,118.5 L122.5,118.5 C136.8,118.5 148.5,106.9 148.5,92.5 C148.5,78.2 136.9,66.5 122.5,66.5 L4.60412555,66.5 C2.19308303,74.7479019 0.9,83.4729431 0.9,92.5 C0.9,101.527057 2.19308303,110.252098 4.60412555,118.5 Z" id="Combined-Shape" fill="#0AA5DE"></path>
                <path d="M4.60412555,66.5 L81.8,66.5 C83.8,74.3 85,82.9 85,92.5 C85,102 83.9,110.7 82,118.5 L4.60412555,118.5 C2.19308303,110.252098 0.9,101.527057 0.9,92.5 C0.9,83.4729431 2.19308303,74.7479019 4.60412555,66.5 Z" id="Combined-Shape" fill="#473f41"></path>
                <path d="M46.9,12.5 C31.1,21.7 18.3,35.4 10.2,51.9 L78.5,51.9 C71.4,36.3 60.5,22.7 46.9,12.5 L46.9,12.5 Z" id="Shape" fill="#D7A229"></path>
                <path d="M49.6,173.9 C62.9,163.1 73.5,149.1 80.1,133 L10.2,133 C18.7,150.4 32.6,164.8 49.6,173.9 L49.6,173.9 Z" id="Shape" fill="#009B8F"></path>
            </g>
        </g>
    </g>
</svg>